<?xml version="1.0" standalone="no"?><!DOCTYPE svg PUBLIC "-//W3C//DTD SVG 1.1//EN" "http://www.w3.org/Graphics/SVG/1.1/DTD/svg11.dtd"><svg t="1692252497909" class="icon" viewBox="0 0 1024 1024" version="1.1" xmlns="http://www.w3.org/2000/svg" p-id="1098" xmlns:xlink="http://www.w3.org/1999/xlink" width="200" height="200"><path d="M728.35 926.51h-430.7c-43.06 0-83.65-16.88-114.29-47.53s-47.53-71.24-47.53-114.29V359.52c0-20.16 16.34-36.5 36.5-36.5s36.5 16.34 36.5 36.5v405.17c0 48.97 39.84 88.82 88.82 88.82h430.71c48.97 0 88.82-39.84 88.82-88.82V359.52c0-20.16 16.34-36.5 36.5-36.5s36.5 16.34 36.5 36.5v405.17c0 43.06-16.88 83.65-47.53 114.29s-71.24 47.53-114.3 47.53z" fill="#231815" p-id="1099"></path><path d="M513 718.24c-73.23 0-132.8-59.57-132.8-132.8 0-73.23 59.57-132.8 132.8-132.8 73.23 0 132.8 59.57 132.8 132.8 0 73.23-59.57 132.8-132.8 132.8z m0-192.6c-32.97 0-59.8 26.83-59.8 59.8s26.83 59.8 59.8 59.8 59.8-26.83 59.8-59.8-26.83-59.8-59.8-59.8z" fill="#F7B52C" p-id="1100"></path><path d="M107.65 408.11c-12 0-23.75-5.91-30.73-16.75-10.91-16.95-6.01-39.54 10.94-50.45L493.24 79.97c16.95-10.91 39.54-6.01 50.45 10.94 10.91 16.95 6.01 39.54-10.94 50.45L127.37 402.29a36.292 36.292 0 0 1-19.72 5.82z" fill="#231815" p-id="1101"></path><path d="M918.35 408.11a36.34 36.34 0 0 1-19.72-5.81L493.24 141.35c-16.95-10.91-21.85-33.5-10.94-50.45 10.91-16.95 33.5-21.85 50.45-10.94L938.14 340.9c16.95 10.91 21.85 33.5 10.94 50.45-6.98 10.85-18.73 16.76-30.73 16.76z" fill="#231815" p-id="1102"></path></svg>
